Coordinates
version=1
nRows=6
nColumns=63
inDegrees=yes

Units are S.I. units (second, meters, Newtons, ...)
If the header above contains a line with 'inDegrees', this indicates whether rotational values are in degrees (yes) or radians (no).

endheader
time	pelvis_tilt	pelvis_list	pelvis_rotation	pelvis_tx	pelvis_ty	pelvis_tz	hip_flexion_r	hip_adduction_r	hip_rotation_r	knee_angle_r	knee_angle_r_beta	ankle_angle_r	subtalar_angle_r	mtp_angle_r	hip_flexion_l	hip_adduction_l	hip_rotation_l	knee_angle_l	knee_angle_l_beta	ankle_angle_l	subtalar_angle_l	mtp_angle_l	L5_S1_Flex_Ext	L5_S1_Lat_Bending	L5_S1_axial_rotation	L4_L5_Flex_Ext	L4_L5_Lat_Bending	L4_L5_axial_rotation	L3_L4_Flex_Ext	L3_L4_Lat_Bending	L3_L4_axial_rotation	L2_L3_Flex_Ext	L2_L3_Lat_Bending	L2_L3_axial_rotation	L1_L2_Flex_Ext	L1_L2_Lat_Bending	L1_L2_axial_rotation	L1_T12_Flex_Ext	L1_T12_Lat_Bending	L1_T12_axial_rotation	Abs_r3	Abs_r2	Abs_r1	Abs_t1	Abs_t2	neck_flexion	neck_bending	neck_rotation	arm_flex_r	arm_add_r	arm_rot_r	elbow_flex_r	pro_sup_r	wrist_flex_r	wrist_dev_r	arm_flex_l	arm_add_l	arm_rot_l	elbow_flex_l	pro_sup_l	wrist_flex_l	wrist_dev_l
0.833333	-1.834119	1.765928	90.641724	0.102850	0.910999	0.480788	-1.733270	-0.401359	-0.383903	6.527394	0.113925	25.035832	0.335394	0.000000	-3.637009	-0.777611	2.130192	0.582442	0.010166	26.449235	-9.558194	0.000000	-0.050376	-0.575618	1.280288	-0.093553	-0.765572	1.360306	-0.082762	-1.399557	1.360306	-0.057574	-1.399557	1.120252	-0.046779	-1.173800	1.040234	-0.028785	-0.891632	0.960216	-0.359829	-6.511504	7.120576	0.000000	0.000000	15.167195	4.674527	-15.468942	44.111131	-13.924203	-25.312533	129.418282	66.076257	4.692365	5.786646	17.880669	-13.681414	163.370476	8.653062	30.798179	-9.221614	-4.851651
0.850000	-1.770197	1.555372	90.593394	0.103744	0.910845	0.481713	-1.520889	-0.232618	0.345085	6.302097	0.109992	24.625893	-0.657398	0.000000	-3.354380	-0.886506	2.097071	0.643141	0.011225	25.786846	-9.544092	0.000000	-0.067519	-0.594314	1.222617	-0.125389	-0.790437	1.299030	-0.110927	-1.445015	1.299030	-0.077167	-1.445015	1.069790	-0.062698	-1.211925	0.993376	-0.038580	-0.920592	0.916963	-0.482280	-6.722996	6.799828	0.000000	0.000000	15.619640	4.985515	-16.693311	47.559219	-14.381300	-25.633262	131.352856	68.310657	4.312854	2.642083	17.246190	-13.660740	171.855496	6.836770	26.012994	-9.416542	-5.157531
0.866667	-1.736892	1.345113	90.594867	0.104623	0.910665	0.482633	-1.320131	-0.088503	1.071882	6.059871	0.105765	24.185588	-1.744427	0.000000	-3.046152	-0.958782	2.214249	0.732257	0.012780	25.132976	-9.698602	0.000000	-0.083918	-0.618195	1.157274	-0.155845	-0.822199	1.229603	-0.137870	-1.503079	1.229603	-0.095910	-1.503079	1.012614	-0.077927	-1.260623	0.940285	-0.047951	-0.957584	0.867955	-0.599421	-6.993143	6.436409	0.000000	0.000000	15.978195	5.400523	-17.860259	50.785160	-14.876899	-25.633008	132.958887	70.568200	3.374260	-0.184622	16.509106	-13.736579	178.319888	5.459167	21.166947	-9.317543	-5.253426
0.883333	-1.723405	1.152308	90.629915	0.105507	0.910468	0.483523	-1.152554	0.041876	1.856787	5.798537	0.101204	23.693626	-2.970259	0.000000	-2.717277	-1.030110	2.013744	0.890277	0.015538	24.651139	-9.410605	0.000000	-0.100677	-0.644960	1.082979	-0.186968	-0.857797	1.150665	-0.165403	-1.568155	1.150665	-0.115064	-1.568155	0.947606	-0.093489	-1.315202	0.879920	-0.057527	-0.999043	0.812234	-0.719129	-7.295915	6.023202	0.000000	0.000000	16.196876	5.918223	-18.892619	53.737984	-15.335058	-25.456722	134.254377	72.526362	2.421713	-2.348962	15.613766	-13.970699	181.744616	4.597688	16.933032	-8.963160	-5.053343
0.900000	-1.734305	0.976901	90.696541	0.106393	0.910251	0.484360	-1.015394	0.152430	2.681244	5.529093	0.096501	23.158095	-4.310383	0.000000	-2.363409	-1.094334	1.473907	1.128390	0.019694	24.377680	-8.673998	0.000000	-0.117661	-0.674428	1.005180	-0.218509	-0.896990	1.068003	-0.193306	-1.639805	1.068003	-0.134475	-1.639805	0.879532	-0.109260	-1.375294	0.816708	-0.067232	-1.044689	0.753885	-0.840443	-7.629267	5.590508	0.000000	0.000000	16.279321	6.528663	-19.779824	56.318211	-15.723771	-25.208499	135.317834	73.773438	1.635821	-3.780858	14.703542	-14.368750	182.634872	4.199574	12.975807	-8.402753	-4.711251
0.916667	-1.768009	0.816478	90.786663	0.107284	0.909998	0.485113	-0.898122	0.240779	3.507770	5.271318	0.092002	22.602395	-5.702629	0.000000	-1.983676	-1.150134	0.662386	1.449646	0.025301	24.313783	-7.612173	0.000000	-0.134919	-0.706087	0.924938	-0.250559	-0.939095	0.982746	-0.221659	-1.716779	0.982746	-0.154199	-1.716779	0.809320	-0.125286	-1.439852	0.751512	-0.077093	-1.093728	0.693703	-0.963716	-7.987393	5.144226	0.000000	0.000000	16.259967	7.248674	-20.473469	58.462558	-15.988494	-24.943363	136.253820	74.537664	1.020402	-4.521909	13.764225	-14.932500	180.662562	4.277157	10.162944	-7.546315	-4.168023
